<svg version="1" xmlns="http://www.w3.org/2000/svg" width="1133.333" height="1133.333" viewBox="0 0 850.000000 850.000000"><path d="M348 85.5V99h19.8c33.9 0 57.5 2.5 68.5 7.2 5.5 2.4 11.7 8.9 13.7 14.5 1.3 3.2 1.5 39.6 1.8 250.8.2 179 0 250.7-.8 260.5-4.2 49.5-25.1 91.2-56.1 112-19.1 12.7-38.5 16.6-62.5 12.5-41.5-7.2-75.5-32.1-91-66.6l-1.2-2.6 8.7.5c14.3.8 25.9-3.6 35.2-13.5 6.2-6.6 9.6-13.7 10.9-23.4 1.3-9.2-.6-20.5-4.6-28-3.6-6.6-12-14.4-19.1-17.7-5.4-2.5-6.8-2.7-18.8-2.7-12.5 0-13.2.1-19.7 3.2-8.6 4.1-15 10-18.7 17.4-4.3 8.6-5.4 15.5-4.8 29.4 1.3 29.6 13.9 56.8 37.2 80 19.9 19.9 42.9 32.5 72.4 39.6 12.6 3 46 3.8 60.3 1.4 61.4-10.3 111.4-52.4 130.7-110 1.6-5 4-13.5 5.2-19l2.3-10 .6-257c.4-195.7.8-257.8 1.7-260.4 1.5-4.2 4-8 6.7-10.3 5.6-4.7 22.2-7.8 42.1-7.8h9.5V71.8l-34.2.8c-42.7 1.1-132.4 1.2-168.5.1l-27.3-.8v13.6z"/></svg>